<svg width="48" height="37" viewBox="0 0 48 37" fill="none" xmlns="http://www.w3.org/2000/svg">
<path fill-rule="evenodd" clip-rule="evenodd" d="M45 30.5V12.5C45 10.8431 43.6569 9.5 42 9.5H38.4853C36.0983 9.5 33.8092 8.55179 32.1213 6.86396L29.636 4.37868C29.0734 3.81607 28.3104 3.5 27.5147 3.5H20.4853C19.6896 3.5 18.9266 3.81607 18.364 4.37868L15.8787 6.86396C14.1909 8.55179 11.9017 9.5 9.51472 9.5H6C4.34315 9.5 3 10.8431 3 12.5V30.5C3 32.1569 4.34315 33.5 6 33.5H42C43.6569 33.5 45 32.1569 45 30.5ZM6 6.5C2.68629 6.5 0 9.18629 0 12.5V30.5C0 33.8137 2.68629 36.5 6 36.5H42C45.3137 36.5 48 33.8137 48 30.5V12.5C48 9.18629 45.3137 6.5 42 6.5H38.4853C36.894 6.5 35.3679 5.86786 34.2426 4.74264L31.7574 2.25736C30.6321 1.13214 29.106 0.5 27.5147 0.5H20.4853C18.894 0.5 17.3679 1.13214 16.2426 2.25736L13.7574 4.74264C12.6321 5.86786 11.106 6.5 9.51472 6.5H6Z" fill="black"/>
<path fill-rule="evenodd" clip-rule="evenodd" d="M24 27.5C28.1421 27.5 31.5 24.1421 31.5 20C31.5 15.8579 28.1421 12.5 24 12.5C19.8579 12.5 16.5 15.8579 16.5 20C16.5 24.1421 19.8579 27.5 24 27.5ZM24 30.5C29.799 30.5 34.5 25.799 34.5 20C34.5 14.201 29.799 9.5 24 9.5C18.201 9.5 13.5 14.201 13.5 20C13.5 25.799 18.201 30.5 24 30.5Z" fill="black"/>
<path d="M9 14C9 14.8284 8.32843 15.5 7.5 15.5C6.67157 15.5 6 14.8284 6 14C6 13.1716 6.67157 12.5 7.5 12.5C8.32843 12.5 9 13.1716 9 14Z" fill="black"/>
</svg>
